<svg width="30" height="30" viewBox="0 0 30 30" fill="none" xmlns="http://www.w3.org/2000/svg">
<circle cx="15" cy="15" r="15" fill="white"/>
<path d="M14.0978 0.027586C12.1643 0.141723 10.2411 0.643237 8.50128 1.48025C4.27792 3.51397 1.23059 7.42577 0.300137 12.0086C-0.353603 15.2217 0.0683876 18.5801 1.49001 21.52C3.52733 25.7362 7.43247 28.7729 12.0086 29.6999C15.222 30.3536 18.5806 29.9316 21.5207 28.5101C24.5577 27.0436 27.0447 24.5568 28.5112 21.52C29.2099 20.0743 29.67 18.5282 29.8741 16.9407C30.2511 14.0354 29.7772 11.0955 28.5112 8.48068C27.0447 5.44393 24.5577 2.95712 21.5207 1.49062C19.2205 0.376916 16.654 -0.128056 14.0978 0.027586ZM20.2167 8.19361L20.2063 9.82958L18.6152 9.84687C16.8166 9.86762 16.9273 9.84687 16.7336 10.1512C16.5364 10.466 16.5226 10.5732 16.5226 11.8598V13.0289H18.3731H20.2236V14.568V16.1071H18.3731H16.5226V20.7072V25.3073H14.7412H12.9599V20.7072V16.1071H11.3687H9.77763V14.568V13.0289H11.3687H12.9599V11.9186C12.9599 10.7115 12.9944 10.338 13.1536 9.78807C13.5894 8.28699 14.7516 7.0799 16.1179 6.71674C16.616 6.58185 16.8304 6.57147 18.591 6.56455L20.2236 6.56109L20.2167 8.19361Z" fill="#3B5998"/>
</svg>
