<?xml version="1.0" ?><svg style="enable-background:new 0 0 512 512;" version="1.1" viewBox="0 0 512 512" xml:space="preserve" xmlns="http://www.w3.org/2000/svg" xmlns:xlink="http://www.w3.org/1999/xlink"><style type="text/css">
	.st0{fill:#1E1E1E;}
	.st1{fill:#464646;stroke:#21759B;stroke-width:2;stroke-miterlimit:10;}
	.st2{fill:#FFFFFF;}
</style><g id="Edges"/><g id="Background_Bottom"><g><path class="st0" d="M492.3,443.1c0,34.2-27.7,61.9-61.9,61.9H80.7c-34.2,0-61.9-27.7-61.9-61.9V93.4c0-34.2,27.7-61.9,61.9-61.9    h349.7c34.2,0,61.9,27.7,61.9,61.9V443.1z"/></g></g><g id="Background"><path class="st1" d="M492.3,418.4c0,34.2-27.7,61.9-61.9,61.9H80.7c-34.2,0-61.9-27.7-61.9-61.9V68.6c0-34.2,27.7-61.9,61.9-61.9   h349.7c34.2,0,61.9,27.7,61.9,61.9V418.4z"/></g><g id="Symbol"><g><path class="st2" d="M257.6,393.5c-51.5-0.7-91.8-21.9-125.1-58.1c-1.8-2-4.8-4.3-2-7.1c2.4-2.3,4.6,0.7,6.5,2    c35,24.5,73.8,38.1,116.4,39.5c32.5,1,63.5-6.4,92.8-20.6c1.5-0.7,3-1.6,4.5-2.3c3-1.3,6.4-4.2,9-0.4c2.6,3.8-0.2,6.6-3.2,9.2    c-23.8,20.8-51.8,32.1-82.8,36.4C267.9,393,262,393.1,257.6,393.5z"/><path class="st2" d="M334.2,335c9.2-8.7,21.1-10,33-9.7c15.7,0.5,17.9,3.9,14.2,19.3c-2.8,11.6-7.6,21.9-18.4,30    c-1.3-7.7,2.5-12.6,4.2-17.9c6.2-19.1,4.2-21.7-15.7-20.5c-5.5,0.3-11,0.6-16.6,1C334.7,336.4,334.4,335.7,334.2,335z"/><path class="st2" d="M339.8,286.4c-8.2-10.4-11.5-22-11.3-35.2c0.5-23.6,0.4-47.2,0.1-70.8c-0.4-30.5-15.4-49.2-44.6-56.1    c-18.1-4.3-36.3-4.1-54.2,0.4c-25.8,6.5-44,21.5-50.6,48.4c-1.8,7.4,1,10.6,8,11.4c8.7,0.9,17.4,1.2,26,2.7    c7.4,1.4,10.7-0.9,12.8-8c3.9-13.6,17.1-21.4,31.5-19.3c13.7,2,20.4,10.4,20.7,26.1c0,2.5-0.3,5.1,0.1,7.6    c0.6,4.9-1.6,6.2-6.2,6.5c-13.5,0.8-26.8,2.6-40.1,5.1c-36.4,6.8-56.8,28.1-59.3,61.9c-2.1,28,12.4,51.1,37,57    c24.5,5.8,47.4,2,66.9-15.3c2.9-2.6,5.8-5.2,8.8-8c5.4,8,10.6,15.2,17.5,21.1c4.7,4,8.8,4.1,13.4,0c7.1-6.3,14.4-12.5,21.6-18.8    C345.7,296.2,346.2,294.5,339.8,286.4z M272.1,272c-7.5,14.2-20.9,20.8-32.9,16.2c-11.5-4.4-16.9-19.4-12.7-34.6    c2.5-8.9,8.2-15.1,16.3-19.3c6.1-3.1,12.7-4.4,19.3-5.4c15.9-2.3,15.9-2.2,15.9,13.7C278.1,252.9,276.9,262.8,272.1,272z"/></g></g></svg>