<svg width="70" height="69" viewBox="0 0 70 69" fill="none" xmlns="http://www.w3.org/2000/svg">
<path d="M69 60.5528C69 65.2199 65.022 69 60.1105 69H9.88955C4.97804 69 1 65.2199 1 60.5528V12.8314C1 8.16433 4.97804 4.38428 9.88955 4.38428H60.1105C65.022 4.38428 69 8.16433 69 12.8314V60.5528Z" fill="#1E1E1E"/>
<path d="M69 57.1822C69 61.8493 65.022 65.6293 60.1105 65.6293H9.88955C4.97804 65.6293 1 61.8493 1 57.1822V9.44712C1 4.78005 4.97804 1 9.88955 1H60.1105C65.022 1 69 4.78005 69 9.44712V57.1822Z" fill="#FF0404" stroke="black" stroke-width="2" stroke-miterlimit="10"/>
<path d="M35.2944 53.7842C27.8984 53.6887 22.1109 50.7957 17.3286 45.8557C17.0701 45.5828 16.6393 45.2689 17.0414 44.8868C17.3861 44.5729 17.702 44.9823 17.9749 45.1597C23.0013 48.5031 28.5734 50.359 34.6913 50.55C39.3586 50.6865 43.8106 49.6767 48.0184 47.7389C48.2338 47.6434 48.4492 47.5205 48.6647 47.425C49.0955 47.2476 49.5838 46.8519 49.9572 47.3704C50.3305 47.889 49.9284 48.2711 49.4976 48.6259C46.0796 51.4644 42.0585 53.0064 37.6066 53.5932C36.7736 53.716 35.9263 53.7297 35.2944 53.7842Z" fill="white"/>
<path d="M46.295 45.801C47.6163 44.6137 49.3252 44.4363 51.0342 44.4773C53.2889 44.5455 53.6049 45.0095 53.0735 47.111C52.6714 48.694 51.9821 50.0996 50.4311 51.205C50.2444 50.1542 50.7901 49.4855 51.0342 48.7622C51.9246 46.1558 51.6374 45.801 48.7795 45.9647C47.9897 46.0057 47.1998 46.0466 46.3956 46.1012C46.3668 45.992 46.3238 45.8965 46.295 45.801Z" fill="white"/>
<path d="M29.32 20.336V23.696H21.76V27.704H28.312V31.064H21.76V38H18.28V20.336H29.32ZM50.8626 19.616V38H47.3826V29.576L41.6226 37.76H41.5746L36.0306 30.104V38H32.6706V19.616H32.6946L41.6466 32.312L50.8146 19.616H50.8626Z" fill="white"/>
</svg>
