<?xml version="1.0" encoding="UTF-8" standalone="no"?>
<svg
   xmlns:dc="http://purl.org/dc/elements/1.1/"
   xmlns:cc="http://creativecommons.org/ns#"
   xmlns:rdf="http://www.w3.org/1999/02/22-rdf-syntax-ns#"
   xmlns:svg="http://www.w3.org/2000/svg"
   xmlns="http://www.w3.org/2000/svg"
   id="svg3983"
   version="1.1"
   viewBox="0 0 126.36459 133.4227"
   height="133.4227mm"
   width="126.36459mm">
  <defs
     id="defs3977">
    <clipPath
       id="clipPath510"
       clipPathUnits="userSpaceOnUse">
      <path
         id="path508"
         d="m 495.869,870.331 h 168.254 v -66.62 H 495.869 Z" />
    </clipPath>
    <clipPath
       id="clipPath526"
       clipPathUnits="userSpaceOnUse">
      <path
         id="path524"
         d="M 544.277,882.402 H 716.912 V 831.466 H 544.277 Z" />
    </clipPath>
    <clipPath
       id="clipPath658"
       clipPathUnits="userSpaceOnUse">
      <path
         id="path656"
         d="M 647.439,1074.98 H 666.3 v -13.82 h -18.861 z" />
    </clipPath>
    <clipPath
       id="clipPath674"
       clipPathUnits="userSpaceOnUse">
      <path
         id="path672"
         d="m 652.498,1074.98 h 20.413 v -15.73 h -20.413 z" />
    </clipPath>
    <clipPath
       id="clipPath782"
       clipPathUnits="userSpaceOnUse">
      <path
         id="path780"
         d="m 1019.13,1093.31 h 63.02 v -53.25 h -63.02 z" />
    </clipPath>
    <clipPath
       id="clipPath806"
       clipPathUnits="userSpaceOnUse">
      <path
         id="path804"
         d="m 1034.81,1095.74 h 31.14 v -20.01 h -31.14 z" />
    </clipPath>
    <clipPath
       id="clipPath822"
       clipPathUnits="userSpaceOnUse">
      <path
         id="path820"
         d="m 1014.19,1086.65 h 40.93 v -27.31 h -40.93 z" />
    </clipPath>
    <clipPath
       id="clipPath782-3"
       clipPathUnits="userSpaceOnUse">
      <path
         id="path780-6"
         d="m 1019.13,1093.31 h 63.02 v -53.25 h -63.02 z" />
    </clipPath>
    <clipPath
       id="clipPath806-7"
       clipPathUnits="userSpaceOnUse">
      <path
         id="path804-5"
         d="m 1034.81,1095.74 h 31.14 v -20.01 h -31.14 z" />
    </clipPath>
    <clipPath
       id="clipPath822-3"
       clipPathUnits="userSpaceOnUse">
      <path
         id="path820-5"
         d="m 1014.19,1086.65 h 40.93 v -27.31 h -40.93 z" />
    </clipPath>
    <clipPath
       id="clipPath36"
       clipPathUnits="userSpaceOnUse">
      <path
         id="path34"
         d="m 1036.74,676.603 h 12.16 v -19.62 h -12.16 z" />
    </clipPath>
    <clipPath
       id="clipPath68"
       clipPathUnits="userSpaceOnUse">
      <path
         id="path66"
         d="m 1058.37,682.954 h 5.71 v -10.876 h -5.71 z" />
    </clipPath>
    <clipPath
       id="clipPath970"
       clipPathUnits="userSpaceOnUse">
      <path
         id="path968"
         d="m 307.155,678.894 1.455,-1.326 c 0.121,-0.11 0.308,-0.092 0.398,0.046 v 0 c 0.651,0.96 3.013,4.517 5.189,7.923 v 0 c -2.91,-1.516 -5.392,-3.617 -7.042,-6.643" />
    </clipPath>
    <clipPath
       id="clipPath1538"
       clipPathUnits="userSpaceOnUse">
      <path
         id="path1536"
         d="m 166.751,184.109 h 10.178 v -2.899 h -10.178 z" />
    </clipPath>
    <clipPath
       id="clipPath1554"
       clipPathUnits="userSpaceOnUse">
      <path
         id="path1552"
         d="m 155.06,195.769 h 19.883 v -3.058 H 155.06 Z" />
    </clipPath>
    <clipPath
       id="clipPath1574"
       clipPathUnits="userSpaceOnUse">
      <path
         id="path1572"
         d="m 151.441,198.948 h 12.926 v -2.962 h -12.926 z" />
    </clipPath>
    <clipPath
       id="clipPath1590"
       clipPathUnits="userSpaceOnUse">
      <path
         id="path1588"
         d="m 150.855,209.869 h 9.468 v -2.886 h -9.468 z" />
    </clipPath>
    <clipPath
       id="clipPath1746"
       clipPathUnits="userSpaceOnUse">
      <path
         id="path1744"
         d="m 659.779,429.268 c 0,-12.701 10.298,-22.997 22.998,-22.997 v 0 c 12.703,0 22.999,10.296 22.999,22.997 v 0 c 0,12.7 -10.296,22.996 -22.999,22.996 v 0 c -12.7,0 -22.998,-10.296 -22.998,-22.996" />
    </clipPath>
    <clipPath
       id="clipPath1790"
       clipPathUnits="userSpaceOnUse">
      <path
         id="path1788"
         d="m 672.228,355.368 h 12.136 v -11.203 h -12.136 z" />
    </clipPath>
  </defs>
  <metadata
     id="metadata3980">
    <rdf:RDF>
      <cc:Work
         rdf:about="">
        <dc:format>image/svg+xml</dc:format>
        <dc:type
           rdf:resource="http://purl.org/dc/dcmitype/StillImage" />
        <dc:title></dc:title>
      </cc:Work>
    </rdf:RDF>
  </metadata>
  <g
     transform="translate(18.060766,2.398287)"
     id="layer1">
    <g
       id="g9571"
       transform="matrix(0.35277777,0,0,-0.35277777,-327.44264,172.58737)">
      <g
         id="g1860"
         transform="translate(1212.5244,271.3711)">
        <path
           d="m 0,0 c 0,-65.309 -52.944,-118.25 -118.25,-118.25 -65.309,0 -118.25,52.941 -118.25,118.25 0,65.306 52.941,118.251 118.25,118.251 C -52.944,118.251 0,65.306 0,0"
           style="fill:#d8d5ad;fill-opacity:1;fill-rule:nonzero;stroke:none"
           id="path1862" />
      </g>
      <g
         id="g1864"
         transform="translate(1101.2705,408.6514)">
        <path
           d="m 0,0 c -20.465,27.333 -46.973,54.104 -81.381,77.393 0,0 -2.017,-19.204 5.432,-42.452 C -47.572,30.046 -20.735,18.24 0,0"
           style="fill:#b43c00;fill-opacity:1;fill-rule:nonzero;stroke:none"
           id="path1866" />
      </g>
      <g
         id="g1868"
         transform="translate(1123.8994,374.3545)">
        <path
           d="m 0,0 c -6.566,11.39 -14.078,22.89 -22.629,34.297 -20.735,18.24 -47.572,30.046 -75.949,34.941 1.047,-3.269 2.277,-6.62 3.731,-10.005 3.036,-7.079 3.859,-16.576 3.199,-27.566 C -58.195,31.316 -25.003,20.162 0,0"
           style="fill:#c34005;fill-opacity:1;fill-rule:nonzero;stroke:none"
           id="path1870" />
      </g>
      <g
         id="g1872"
         transform="translate(1123.8994,374.3545)">
        <path
           d="m 0,0 c -25.003,20.162 -58.195,31.316 -91.648,31.667 -1.062,-17.603 -5.96,-39.063 -11.858,-60.697 45.149,4.515 91.777,-4.176 129.371,-26.363 C 19.445,-37.929 11.026,-19.132 0,0"
           style="fill:#ca5622;fill-opacity:1;fill-rule:nonzero;stroke:none"
           id="path1874" />
      </g>
      <g
         id="g1876"
         transform="translate(1149.7646,318.9619)">
        <path
           d="m 0,0 c -37.594,22.187 -84.223,30.878 -129.371,26.362 -7.892,-28.954 -9.957,-34.355 -14.574,-50.326 -13.692,-47.386 108.42,39.055 164.511,-69.833 0,0 -1.069,40.72 -20.566,93.797"
           style="fill:#ffffff;fill-opacity:1;fill-rule:nonzero;stroke:none"
           id="path1878" />
      </g>
      <g
         id="g1880"
         transform="translate(1175.9404,215.2197)">
        <path
           d="m 0,0 c 0,0 0.748,163.793 -151.651,277.968 l -4.4,-7.144 c 0,0 126.932,-64.974 144.017,-271.878 z"
           style="fill:#2a5447;fill-opacity:1;fill-rule:nonzero;stroke:none"
           id="path1882" />
      </g>
      <g
         id="g1884"
         transform="translate(1152.6729,310.7539)">
        <path
           d="m 0,0 c 0,0 -125.874,12.031 -162.712,-45.064 l 5.027,-3.154 c 0,0 32.679,49.386 160.168,38.065 z"
           style="fill:#2a5447;fill-opacity:1;fill-rule:nonzero;stroke:none"
           id="path1886" />
      </g>
      <g
         id="g1888"
         transform="translate(1056.123,289.4258)">
        <path
           d="m 0,0 c -0.836,-1.044 -4.206,-6.947 0.625,-13.585 4.831,-6.638 12.964,-10.507 17.489,-5.021 4.528,5.477 -1.42,19.828 -8.382,21.221 C 2.775,4.013 0,0 0,0"
           style="fill:#ffc77f;fill-opacity:1;fill-rule:nonzero;stroke:none"
           id="path1890" />
      </g>
      <g
         id="g1892"
         transform="translate(1089.3857,257.9844)">
        <path
           d="m 0,0 c -7.237,2.675 -12.719,7.607 -14.587,15.877 -0.792,0.043 -1.706,0.048 -2.681,0.006 0.913,-10.818 2.278,-21.415 7.881,-29.984 5.069,1.764 11.135,2.198 17.043,1.079 C 4.725,-9.983 1.906,-4.773 0,0"
           style="fill:#2a5447;fill-opacity:1;fill-rule:nonzero;stroke:none"
           id="path1894" />
      </g>
      <g
         id="g1896"
         transform="translate(1060.4678,270.2959)">
        <path
           d="m 0,0 c 0.744,-7.936 1.942,-14.237 -0.032,-20.235 4.896,-5.755 8.153,-10.453 9.828,-13.058 0.881,1.284 2.029,2.395 3.308,3.399 C 6.883,-20.803 4.72,-9.136 1.026,0.618 0.685,0.418 0.34,0.222 0,0"
           style="fill:#2a5447;fill-opacity:1;fill-rule:nonzero;stroke:none"
           id="path1898" />
      </g>
      <g
         id="g1900"
         transform="translate(1072.1182,273.8672)">
        <path
           d="m 0,0 c -3.123,-0.128 -6.993,-0.838 -10.624,-2.953 3.693,-9.754 5.856,-21.421 12.078,-30.512 1.836,1.447 3.992,2.635 6.427,3.482 C 2.277,-21.415 0.912,-10.817 0,0"
           style="fill:#184537;fill-opacity:1;fill-rule:nonzero;stroke:none"
           id="path1902" />
      </g>
      <g
         id="g1904"
         transform="translate(1060.4678,270.2959)">
        <path
           d="m 0,0 c -0.97,-0.649 -1.925,-1.372 -2.824,-2.261 0,0 -24.289,15.782 -21.525,30.803 l 4.1,1.393 c 0,0 -5.558,4.848 -7.891,-2.466 -3.153,-9.886 0.565,-19.208 19.829,-36.086 3.342,-3.33 5.808,-8.708 8.279,-11.618 C 1.942,-14.237 0.744,-7.936 0,0"
           style="fill:#ffc77f;fill-opacity:1;fill-rule:nonzero;stroke:none"
           id="path1906" />
      </g>
      <g
         id="g1908"
         transform="translate(1101.2607,311.0537)">
        <path
           d="m 0,0 4.876,0.287 c 0,0 -1.493,3.59 -7.13,2.126 -7.682,-1.993 -20.731,-40.026 -20.731,-40.026 0,0 -1.369,0.305 -3.477,0.421 1.868,-8.27 7.35,-13.203 14.587,-15.877 -1.337,3.362 -2.225,6.505 -2.36,8.508 0,0 4.103,27.91 14.235,44.561"
           style="fill:#ffc77f;fill-opacity:1;fill-rule:nonzero;stroke:none"
           id="path1910" />
      </g>
      <g
         id="g1912"
         transform="translate(1099.71,232.6006)">
        <path
           d="m 0,0 c 0,0 -0.345,-0.214 0,0 -6.104,-1.157 -14.091,-4.932 -20.494,-4.383 2.207,-0.971 4.964,-1.714 8.412,-1.856 3.971,-0.167 6.979,-1.382 9.268,-3.212 2.876,0.378 6.236,1.524 8.851,3.094 C 4.362,-4.274 0,0 0,0"
           style="fill:#c34005;fill-opacity:1;fill-rule:nonzero;stroke:none"
           id="path1914" />
      </g>
      <g
         id="g1916"
         transform="translate(1105.7471,226.2432)">
        <path
           d="M 0,0 C -2.527,-0.456 -5.975,-2.716 -8.852,-3.094 0.666,-10.712 3.887,-26.137 3.887,-26.137 l 3.302,3.661 c 0,0 -2.265,11.163 -7.189,22.476"
           style="fill:#ffc77f;fill-opacity:1;fill-rule:nonzero;stroke:none"
           id="path1918" />
      </g>
      <g
         id="g1920"
         transform="translate(1116.6816,233.9629)">
        <path
           d="m 0,0 c 2.259,2.514 3.753,5.623 4.521,8.957 -5.922,1.491 -17.915,4.186 -24.161,2.042 0,0 1.91,-1.978 0,0 -10.716,2.022 -21.984,-1.007 -26.778,-7.959 0.919,-1.429 1.389,-2.249 1.389,-2.249 0,0 1.94,-4.058 7.563,-6.536 6.404,-0.549 14.391,3.225 20.494,4.383 C -15.197,-0.261 0,0 0,0"
           style="fill:#ca5622;fill-opacity:1;fill-rule:nonzero;stroke:none"
           id="path1922" />
      </g>
      <g
         id="g1924"
         transform="translate(1121.2031,242.9199)">
        <path
           d="m 0,0 c -0.769,-3.334 -2.263,-6.443 -4.521,-8.957 0,0 19.665,-0.728 27.038,-8.798 l 4.962,2.044 C 27.479,-15.711 15.176,-3.829 0,0"
           style="fill:#ffc77f;fill-opacity:1;fill-rule:nonzero;stroke:none"
           id="path1926" />
      </g>
      <g
         id="g1928"
         transform="translate(1228.9893,290.1172)">
        <path
           d="m 0,0 c -15.697,-9.546 -87.228,-53.777 -124.835,-89.729 -37.682,-36.033 -41.978,-67.806 -42.472,-74.419 36.157,17.748 70.079,37.729 99.272,60.428 C -21.973,-69.661 -7.488,-33.425 0,0"
           style="fill:#ffa922;fill-opacity:1;fill-rule:nonzero;stroke:none"
           id="path1930" />
      </g>
      <g
         id="g1932"
         transform="translate(1228.9893,290.1172)">
        <path
           d="m 0,0 c -7.488,-33.425 -21.973,-69.661 -68.035,-103.72 -29.193,-22.699 -63.115,-42.68 -99.272,-60.428 -0.06,-0.823 -0.068,-1.277 -0.068,-1.277 l 31.177,6.428 c 0,0 63.962,3.126 108.679,60.921 C 8.267,-51.814 3.104,1.879 3.104,1.879 3.104,1.879 2.002,1.219 0,0"
           style="fill:#ff9822;fill-opacity:1;fill-rule:nonzero;stroke:none"
           id="path1934" />
      </g>
      <g
         id="g1936"
         transform="translate(1071.8555,280.8018)">
        <path
           d="m 0,0 c 0,0 -2.915,3.29 -4.256,1.646 -1.344,-1.649 1.17,-6.137 4.481,-4.467 0,0 -1.287,-8.175 -4.038,-8.623 -2.751,-0.443 -1.018,3.669 -1.018,3.669 0,0 -0.481,-4.427 -2.164,-3.951 -1.682,0.487 -1.92,2.49 -1.92,2.49 0,0 0.469,-3.953 -1.323,-2.773 -1.792,1.184 -1.16,3.055 -1.16,3.055 0,0 -0.739,-2.012 -2.175,-1.246 -1.437,0.763 -0.215,2.68 -0.215,2.68 0,0 -5.116,2.591 -5.524,5.823 -0.407,3.232 1.331,7.688 1.331,7.688 0,0 -2.979,-0.19 -2.085,1.659 0.889,1.851 1.941,0.171 1.941,0.171 0,0 -0.024,2.309 1.146,3.043 1.173,0.738 0.931,-1.788 0.931,-1.788 0,0 2.524,3.417 7.151,4.515 4.627,1.101 2.294,-1.047 2.294,-1.047 0,0 4.829,2.217 6.497,-0.202 1.668,-2.412 -0.348,-2.97 -0.348,-2.97 0,0 3.789,-0.813 3.51,-2.229 -0.275,-1.412 -3.53,-1.219 -3.53,-1.219 0,0 1.467,-2.016 1.952,-3.361 C 1.964,1.217 -0.203,2.557 -0.203,2.557 -0.203,2.557 3.55,-2.077 0,0"
           style="fill:#083829;fill-opacity:1;fill-rule:nonzero;stroke:none"
           id="path1938" />
      </g>
      <g
         id="g1940"
         transform="translate(1078.7041,166.9609)">
        <path
           d="m 0,0 c 0,0 -21.316,25.022 -48.199,48.533 -26.891,23.511 -16.672,-4.828 -16.672,-4.828 0,0 -37.974,28.339 -41.518,19.902 -3.548,-8.443 19.691,-27.135 19.691,-27.135 0,0 -44.573,41.597 -55.539,34.362 -10.966,-7.227 18.665,-31.956 18.665,-31.956 0,0 -33.239,11.252 -38.042,7.434 -4.802,-3.811 20.484,-25.881 20.484,-25.881 0,0 -37.314,7.472 -41.518,0 C -186.853,12.95 -162.209,0 -162.209,0 c 0,0 -31.256,4.163 -34.259,-6.812 -3.004,-10.982 28.895,-22.432 28.895,-22.432 0,0 -30.694,8.437 -31.293,0 -0.606,-8.445 16.823,-17.066 16.823,-17.066 l 203.438,0.894 z"
           style="fill:#009ed3;fill-opacity:1;fill-rule:nonzero;stroke:none"
           id="path1942" />
      </g>
      <g
         id="g1944"
         transform="translate(1136.3057,146.2754)">
        <path
           d="m 0,0 c 0,0 -23.837,28.938 -36.196,32.558 -12.37,3.616 -0.545,-11.75 -0.545,-11.75 0,0 -21.861,28.631 -44.776,32.247 -22.931,3.62 -5.042,-16.881 -5.042,-16.881 0,0 -35.316,13.871 -41.323,8.445 -6.005,-5.427 13.443,-15.075 13.443,-15.075 0,0 -24.997,7.832 -29.13,1.211 -4.146,-6.637 16.889,-14.476 16.889,-14.476 0,0 -49.674,10.853 -59.98,-1.203 -10.324,-12.062 19.068,-8.437 19.068,-8.437 0,0 -29.717,-8.805 -39.164,-32.141 l 237.661,0.938 c 0,0 -22.484,37.471 -31.905,38.56 C -10.403,15.076 0,0 0,0"
           style="fill:#15add7;fill-opacity:1;fill-rule:nonzero;stroke:none"
           id="path1946" />
      </g>
      <g
         id="g1948"
         transform="translate(1130.9873,123.5391)">
        <path
           d="m 0,0 c 0,0 -34.776,35.416 -46.559,31.798 -11.775,-3.617 -1.517,-15.768 -1.517,-15.768 0,0 -25.455,18.464 -35.147,16.031 -9.673,-2.422 0,-15.925 0,-15.925 0,0 -14.609,4.891 -14.609,-8.91 0,0 5.822,10.841 22.3,3.617 0,0 -8.365,10.842 -5.214,15.907 3.134,5.048 41.535,-18.796 41.535,-18.796 0,0 -16.803,18.56 -4.275,20.227 C -35.865,29.216 0,0 0,0"
           style="fill:#009ed3;fill-opacity:1;fill-rule:nonzero;stroke:none"
           id="path1950" />
      </g>
      <g
         id="g1952"
         transform="translate(1014.4307,140.5791)">
        <path
           d="m 0,0 c 0,0 -13.213,5.899 -19.228,-0.904 -6.006,-6.786 7.814,-11.615 7.814,-11.615 0,0 -19.834,7.418 -24.031,0 0,0 -2.087,6.803 10.975,7.324 0,0 6.691,17.995 24.47,5.195"
           style="fill:#009ed3;fill-opacity:1;fill-rule:nonzero;stroke:none"
           id="path1954" />
      </g>
    </g>
  </g>
</svg>
