<svg width="30" height="30" viewBox="0 0 30 30" fill="none" xmlns="http://www.w3.org/2000/svg">
<path d="M15 30C23.2843 30 30 23.2843 30 15C30 6.71573 23.2843 0 15 0C6.71573 0 0 6.71573 0 15C0 23.2843 6.71573 30 15 30Z" fill="#4AAEE8"/>
<path d="M15.5036 22.1048C15.3386 21.9383 14.7577 20.9243 14.2126 19.8514C13.6675 18.7786 13.1111 17.743 12.9761 17.5501C12.8223 17.3303 11.9521 16.8076 10.6436 16.1491C8.28964 14.9644 7.97332 14.7102 8.03701 14.0543C8.09521 13.455 8.33382 13.3311 11.6475 12.1783C13.1631 11.651 15.6077 10.8008 17.08 10.2889C18.5523 9.77699 19.9201 9.35815 20.1197 9.35815C20.5363 9.35815 20.9278 9.72646 20.9278 10.1185C20.9278 10.266 20.4367 11.805 19.8365 13.5384C19.2363 15.2718 18.5474 17.2651 18.3055 17.968C17.4882 20.3441 16.8631 21.9355 16.6544 22.1721C16.3682 22.4964 15.8623 22.4669 15.5036 22.1048V22.1048Z" fill="white"/>
</svg>
