<svg width="58" height="59" viewBox="0 0 58 59" fill="none" xmlns="http://www.w3.org/2000/svg">
<path d="M2.14568 4.80978H8.29659L17.0582 40.3219C17.3084 41.3641 18.1667 42.0856 19.1323 42.0856H46.0606C46.9188 42.0856 47.6698 41.5244 48.0274 40.6426L57.826 15.3913C58.1121 14.6298 58.0405 13.7881 57.6471 13.1066C57.2537 12.4252 56.5743 12.0244 55.859 12.0244H26.1057C24.9256 12.0244 23.9601 13.1066 23.9601 14.4293C23.9601 15.752 24.9256 16.8342 26.1057 16.8342H52.5692L44.6302 37.2758H20.7415L11.9801 1.76363C11.7298 0.721467 10.8715 0 9.90598 0H2.14568C0.965556 0 0 1.0822 0 2.40489C0 3.72758 0.965556 4.80978 2.14568 4.80978Z" fill="#FF0404"/>
<path d="M17.094 59C19.7761 59 21.9575 56.555 21.9575 53.5489C21.9575 50.5428 19.7761 48.0979 17.094 48.0979C14.4119 48.0979 12.2305 50.5427 12.2305 53.5488C12.2305 56.5549 14.4119 59 17.094 59Z" fill="#FF0404"/>
<path d="M47.4911 59C47.5984 59 47.7414 59 47.8487 59C49.1361 58.8798 50.3162 58.2385 51.1745 57.1162C52.0327 56.034 52.4262 54.6311 52.3546 53.1481C52.1757 50.182 49.8513 47.8974 47.1692 48.0978C44.4872 48.2983 42.4845 50.9437 42.6633 53.9096C42.842 56.7554 44.952 59 47.4911 59Z" fill="#FF0404"/>
</svg>
