<svg width="40" height="40" viewBox="0 0 40 40" fill="none" xmlns="http://www.w3.org/2000/svg">
<path d="M1.47978 3.26087H5.72179L11.7642 27.3369C11.9369 28.0435 12.5288 28.5326 13.1947 28.5326H31.7659C32.3578 28.5326 32.8757 28.1521 33.1223 27.5543L39.88 10.4348C40.0773 9.9185 40.028 9.34785 39.7566 8.88586C39.4853 8.42387 39.0167 8.15217 38.5235 8.15217H18.004C17.1901 8.15217 16.5242 8.88586 16.5242 9.7826C16.5242 10.6793 17.1901 11.413 18.004 11.413H36.2546L30.7794 25.2717H14.3045L8.26213 1.19568C8.08952 0.48913 7.49761 0 6.83171 0H1.47978C0.665901 0 0 0.733695 0 1.63043C0 2.52717 0.665901 3.26087 1.47978 3.26087Z" fill="#FF0404"/>
<path d="M11.789 40C13.6387 40 15.1431 38.3424 15.1431 36.3044C15.1431 34.2663 13.6387 32.6088 11.789 32.6088C9.93923 32.6088 8.43481 34.2662 8.43481 36.3043C8.43481 38.3423 9.93923 40 11.789 40Z" fill="#FF0404"/>
<path d="M32.7524 40C32.8264 40 32.9251 40 32.999 40C33.8869 39.9185 34.7008 39.4837 35.2927 38.7228C35.8846 37.9891 36.1559 37.038 36.1066 36.0326C35.9832 34.0217 34.3802 32.4727 32.5305 32.6086C30.6808 32.7445 29.2996 34.538 29.4229 36.5488C29.5462 38.4782 31.0013 40 32.7524 40Z" fill="#FF0404"/>
</svg>
