<svg width="50" height="49" viewBox="0 0 50 49" fill="none" xmlns="http://www.w3.org/2000/svg">
<path d="M49 43.0373C49 46.3317 46.192 49 42.725 49H7.27497C3.80803 49 1 46.3317 1 43.0373V9.35159C1 6.05719 3.80803 3.38892 7.27497 3.38892H42.725C46.192 3.38892 49 6.05719 49 9.35159V43.0373V43.0373Z" fill="#1E1E1E"/>
<path d="M49 40.658C49 43.9524 46.192 46.6207 42.725 46.6207H7.27497C3.80803 46.6207 1 43.9524 1 40.658V6.96267C1 3.66827 3.80803 1 7.27497 1H42.725C46.192 1 49 3.66827 49 6.96267V40.658V40.658Z" fill="#FF0404" stroke="black" stroke-width="2" stroke-miterlimit="10"/>
<path d="M25.2078 38.2595C19.9871 38.1921 15.9018 36.1499 12.5261 32.6629C12.3436 32.4702 12.0395 32.2487 12.3233 31.979C12.5666 31.7574 12.7896 32.0464 12.9822 32.1716C16.5303 34.5316 20.4635 35.8417 24.782 35.9765C28.0766 36.0729 31.2192 35.3601 34.1894 33.9922C34.3415 33.9248 34.4935 33.8381 34.6456 33.7707C34.9497 33.6454 35.2944 33.3661 35.558 33.7321C35.8215 34.0982 35.5377 34.3679 35.2336 34.6183C32.8209 36.6219 29.9825 37.7104 26.8399 38.1247C26.2519 38.2113 25.6538 38.221 25.2078 38.2595Z" fill="white"/>
<path d="M32.973 32.6242C33.9056 31.7862 35.1119 31.661 36.3183 31.6898C37.9098 31.738 38.1328 32.0655 37.7578 33.549C37.4739 34.6664 36.9873 35.6585 35.8925 36.4388C35.7607 35.6971 36.1459 35.2251 36.3183 34.7145C36.9468 32.8747 36.744 32.6242 34.7267 32.7398C34.1692 32.7687 33.6116 32.7976 33.0439 32.8361C33.0236 32.7591 32.9932 32.6917 32.973 32.6242Z" fill="white"/>
<path d="M19.32 13.336V16.696H11.76V20.704H18.312V24.064H11.76V31H8.28V13.336H19.32ZM40.8626 12.616V31H37.3826V22.576L31.6226 30.76H31.5746L26.0306 23.104V31H22.6706V12.616H22.6946L31.6466 25.312L40.8146 12.616H40.8626Z" fill="white"/>
</svg>
